<svg width="21" height="21" viewBox="0 0 21 21" fill="none" xmlns="http://www.w3.org/2000/svg">
<path d="M6.87258 6.72656H3.9375V15.75H6.87258V6.72656Z" fill="white"/>
<path d="M14.8673 6.83238C14.8362 6.82254 14.8066 6.81187 14.7738 6.80285C14.7345 6.79383 14.6951 6.78645 14.6549 6.77988C14.499 6.74871 14.3284 6.72656 14.1282 6.72656C12.4171 6.72656 11.3318 7.97098 10.9741 8.45168V6.72656H8.03906V15.75H10.9741V10.8281C10.9741 10.8281 13.1923 7.73883 14.1282 10.0078C14.1282 12.0332 14.1282 15.75 14.1282 15.75H17.0625V9.66082C17.0625 8.29746 16.1282 7.16133 14.8673 6.83238Z" fill="white"/>
<path d="M5.37305 5.49609C6.16588 5.49609 6.80859 4.85338 6.80859 4.06055C6.80859 3.26772 6.16588 2.625 5.37305 2.625C4.58022 2.625 3.9375 3.26772 3.9375 4.06055C3.9375 4.85338 4.58022 5.49609 5.37305 5.49609Z" fill="white"/>
</svg>
