<svg width="21" height="21" viewBox="0 0 21 21" fill="none" xmlns="http://www.w3.org/2000/svg">
<path d="M11.1557 2.625C7.16912 2.625 3.9375 5.85662 3.9375 9.84319C3.9375 12.8973 5.83726 15.5025 8.51676 16.5571C8.50492 16.3104 8.50661 15.0332 9.39565 11.2196C9.51452 9.94742 9.34945 9.49614 9.34945 8.96768C9.34945 7.76821 9.97256 7.51525 10.3365 7.51525C10.8554 7.51525 11.572 7.71356 11.572 8.54964C11.572 9.50741 10.7912 9.75924 10.7912 9.75924C10.7912 9.75924 10.7348 10.0043 10.67 10.6849C10.6053 11.3666 10.8779 12.1046 11.9901 12.1046C13.7732 12.1046 14.0481 9.62966 14.0481 8.94852C14.0481 8.00765 13.3586 6.09775 11.2177 6.09775C8.36239 6.09775 7.87111 8.65556 7.87111 9.33782C7.87111 9.62966 7.95167 10.1446 8.00689 10.3649C8.54605 10.4522 8.49028 11.1903 8.25985 11.3998C8.0035 11.6303 6.68629 11.9046 6.68629 9.01331C6.68629 6.26001 9.14043 4.84139 11.2943 4.84139C13.3445 4.84139 15.5778 6.25607 15.5778 8.9812C15.5778 11.4139 13.829 13.3295 11.9923 13.3295C10.8892 13.3295 10.3044 12.4207 10.3044 12.4207C10.3044 13.2714 8.74211 16.1949 8.54211 16.5662C9.35339 16.8822 10.2328 17.0619 11.1562 17.0619C15.1428 17.0619 18.375 13.8303 18.375 9.84319C18.375 5.85606 15.1423 2.625 11.1557 2.625Z" fill="white"/>
</svg>
