<svg width="21" height="21" viewBox="0 0 21 21" fill="none" xmlns="http://www.w3.org/2000/svg">
<g clip-path="url(#clip0)">
<path d="M18.5769 4.41187C17.8861 4.7149 17.15 4.91577 16.3825 5.0133C17.172 4.54191 17.7746 3.80115 18.0579 2.9083C17.3218 3.34718 16.5091 3.65718 15.6429 3.83018C14.944 3.08594 13.9478 2.625 12.861 2.625C10.7526 2.625 9.05509 4.3364 9.05509 6.43443C9.05509 6.73631 9.08063 7.02657 9.14333 7.3029C5.97713 7.14848 3.17549 5.63098 1.29342 3.31931C0.964839 3.88939 0.772103 4.54191 0.772103 5.24435C0.772103 6.56331 1.45132 7.73249 2.46376 8.40939C1.85189 8.39778 1.25162 8.22014 0.743077 7.94032C0.743077 7.95193 0.743077 7.96703 0.743077 7.98212C0.743077 9.83285 2.0632 11.3701 3.79434 11.7242C3.48433 11.809 3.14647 11.8496 2.79583 11.8496C2.552 11.8496 2.30586 11.8357 2.07481 11.7846C2.56826 13.2928 3.9685 14.4016 5.63345 14.4376C4.33771 15.4512 2.69249 16.0619 0.91143 16.0619C0.599106 16.0619 0.299553 16.048 0 16.0097C1.68702 17.0976 3.68636 17.7188 5.84244 17.7188C12.8506 17.7188 16.6821 11.9135 16.6821 6.88144C16.6821 6.71308 16.6763 6.55054 16.6681 6.38915C17.424 5.85274 18.0591 5.18281 18.5769 4.41187Z" fill="white"/>
</g>
<defs>
<clipPath id="clip0">
<rect width="21" height="21" fill="white"/>
</clipPath>
</defs>
</svg>
